<mxfile host="Electron" agent="Mozilla/5.0 (Windows NT 10.0; Win64; x64) AppleWebKit/537.36 (KHTML, like Gecko) draw.io/24.7.17 Chrome/128.0.6613.36 Electron/32.0.1 Safari/537.36" version="24.7.17">
  <diagram name="Strona-1" id="AHVVo2TzYNKZg2VQZ6vx">
    <mxGraphModel dx="1088" dy="553" grid="1" gridSize="10" guides="1" tooltips="1" connect="1" arrows="1" fold="1" page="1" pageScale="1" pageWidth="827" pageHeight="1169" math="0" shadow="0">
      <root>
        <mxCell id="0" />
        <mxCell id="1" parent="0" />
        <mxCell id="PyxdqDs6xn2357YQWsqR-6" style="edgeStyle=orthogonalEdgeStyle;rounded=0;orthogonalLoop=1;jettySize=auto;html=1;entryX=0.5;entryY=0;entryDx=0;entryDy=0;exitX=0.5;exitY=1;exitDx=0;exitDy=0;" parent="1" source="PyxdqDs6xn2357YQWsqR-1" target="PyxdqDs6xn2357YQWsqR-2" edge="1">
          <mxGeometry relative="1" as="geometry" />
        </mxCell>
        <mxCell id="PyxdqDs6xn2357YQWsqR-7" style="edgeStyle=orthogonalEdgeStyle;rounded=0;orthogonalLoop=1;jettySize=auto;html=1;entryX=0.5;entryY=0;entryDx=0;entryDy=0;exitX=0.5;exitY=1;exitDx=0;exitDy=0;" parent="1" source="PyxdqDs6xn2357YQWsqR-1" target="PyxdqDs6xn2357YQWsqR-3" edge="1">
          <mxGeometry relative="1" as="geometry">
            <mxPoint x="800" y="70" as="sourcePoint" />
          </mxGeometry>
        </mxCell>
        <mxCell id="PyxdqDs6xn2357YQWsqR-8" style="edgeStyle=orthogonalEdgeStyle;rounded=0;orthogonalLoop=1;jettySize=auto;html=1;entryX=0.5;entryY=0;entryDx=0;entryDy=0;exitX=0.5;exitY=1;exitDx=0;exitDy=0;" parent="1" source="PyxdqDs6xn2357YQWsqR-1" target="PyxdqDs6xn2357YQWsqR-4" edge="1">
          <mxGeometry relative="1" as="geometry" />
        </mxCell>
        <mxCell id="PyxdqDs6xn2357YQWsqR-9" style="edgeStyle=orthogonalEdgeStyle;rounded=0;orthogonalLoop=1;jettySize=auto;html=1;entryX=0.5;entryY=0;entryDx=0;entryDy=0;exitX=0.5;exitY=1;exitDx=0;exitDy=0;" parent="1" source="PyxdqDs6xn2357YQWsqR-1" target="PyxdqDs6xn2357YQWsqR-5" edge="1">
          <mxGeometry relative="1" as="geometry" />
        </mxCell>
        <mxCell id="PyxdqDs6xn2357YQWsqR-1" value="Schedule" style="rounded=0;whiteSpace=wrap;html=1;" parent="1" vertex="1">
          <mxGeometry x="710" y="30" width="120" height="60" as="geometry" />
        </mxCell>
        <mxCell id="PyxdqDs6xn2357YQWsqR-15" value="" style="edgeStyle=orthogonalEdgeStyle;rounded=0;orthogonalLoop=1;jettySize=auto;html=1;" parent="1" source="PyxdqDs6xn2357YQWsqR-2" target="PyxdqDs6xn2357YQWsqR-14" edge="1">
          <mxGeometry relative="1" as="geometry" />
        </mxCell>
        <mxCell id="PyxdqDs6xn2357YQWsqR-2" value="Start" style="ellipse;whiteSpace=wrap;html=1;aspect=fixed;" parent="1" vertex="1">
          <mxGeometry x="569" y="190" width="80" height="80" as="geometry" />
        </mxCell>
        <mxCell id="PyxdqDs6xn2357YQWsqR-11" value="" style="edgeStyle=orthogonalEdgeStyle;rounded=0;orthogonalLoop=1;jettySize=auto;html=1;entryX=0.5;entryY=0;entryDx=0;entryDy=0;" parent="1" source="PyxdqDs6xn2357YQWsqR-3" target="PyxdqDs6xn2357YQWsqR-60" edge="1">
          <mxGeometry relative="1" as="geometry" />
        </mxCell>
        <mxCell id="PyxdqDs6xn2357YQWsqR-3" value="New" style="ellipse;whiteSpace=wrap;html=1;aspect=fixed;" parent="1" vertex="1">
          <mxGeometry x="270" y="190" width="80" height="80" as="geometry" />
        </mxCell>
        <mxCell id="PyxdqDs6xn2357YQWsqR-17" value="" style="edgeStyle=orthogonalEdgeStyle;rounded=0;orthogonalLoop=1;jettySize=auto;html=1;entryX=0.5;entryY=0;entryDx=0;entryDy=0;exitX=0.5;exitY=1;exitDx=0;exitDy=0;" parent="1" source="PyxdqDs6xn2357YQWsqR-4" target="PyxdqDs6xn2357YQWsqR-18" edge="1">
          <mxGeometry relative="1" as="geometry">
            <mxPoint x="959.9999999999998" y="330" as="targetPoint" />
            <Array as="points">
              <mxPoint x="908" y="380" />
              <mxPoint x="1060" y="380" />
            </Array>
          </mxGeometry>
        </mxCell>
        <mxCell id="PyxdqDs6xn2357YQWsqR-4" value="Succeed" style="ellipse;whiteSpace=wrap;html=1;aspect=fixed;" parent="1" vertex="1">
          <mxGeometry x="868" y="190" width="80" height="80" as="geometry" />
        </mxCell>
        <mxCell id="PyxdqDs6xn2357YQWsqR-26" style="edgeStyle=orthogonalEdgeStyle;rounded=0;orthogonalLoop=1;jettySize=auto;html=1;entryX=0.5;entryY=0;entryDx=0;entryDy=0;exitX=0.5;exitY=1;exitDx=0;exitDy=0;" parent="1" source="PyxdqDs6xn2357YQWsqR-5" target="PyxdqDs6xn2357YQWsqR-25" edge="1">
          <mxGeometry relative="1" as="geometry" />
        </mxCell>
        <mxCell id="PyxdqDs6xn2357YQWsqR-5" value="Failed" style="ellipse;whiteSpace=wrap;html=1;aspect=fixed;" parent="1" vertex="1">
          <mxGeometry x="1167.1399999999999" y="190" width="80" height="80" as="geometry" />
        </mxCell>
        <mxCell id="PyxdqDs6xn2357YQWsqR-42" style="edgeStyle=orthogonalEdgeStyle;rounded=0;orthogonalLoop=1;jettySize=auto;html=1;entryX=0.5;entryY=0;entryDx=0;entryDy=0;exitX=0.54;exitY=0.993;exitDx=0;exitDy=0;exitPerimeter=0;" parent="1" source="PyxdqDs6xn2357YQWsqR-10" target="PyxdqDs6xn2357YQWsqR-41" edge="1">
          <mxGeometry relative="1" as="geometry" />
        </mxCell>
        <mxCell id="PyxdqDs6xn2357YQWsqR-10" value="Status = Waiting&lt;div&gt;NextExecution = date&lt;/div&gt;" style="whiteSpace=wrap;html=1;" parent="1" vertex="1">
          <mxGeometry x="380" y="580" width="150" height="60" as="geometry" />
        </mxCell>
        <mxCell id="PyxdqDs6xn2357YQWsqR-44" style="edgeStyle=orthogonalEdgeStyle;rounded=0;orthogonalLoop=1;jettySize=auto;html=1;entryX=0.5;entryY=0;entryDx=0;entryDy=0;" parent="1" source="PyxdqDs6xn2357YQWsqR-14" target="PyxdqDs6xn2357YQWsqR-43" edge="1">
          <mxGeometry relative="1" as="geometry" />
        </mxCell>
        <mxCell id="PyxdqDs6xn2357YQWsqR-14" value="Status = Scheduled&lt;div&gt;LastExecution = now&lt;/div&gt;" style="whiteSpace=wrap;html=1;" parent="1" vertex="1">
          <mxGeometry x="539" y="340" width="140" height="60" as="geometry" />
        </mxCell>
        <mxCell id="PyxdqDs6xn2357YQWsqR-20" value="" style="edgeStyle=orthogonalEdgeStyle;rounded=0;orthogonalLoop=1;jettySize=auto;html=1;exitX=1;exitY=0.5;exitDx=0;exitDy=0;" parent="1" source="PyxdqDs6xn2357YQWsqR-18" target="PyxdqDs6xn2357YQWsqR-19" edge="1">
          <mxGeometry relative="1" as="geometry" />
        </mxCell>
        <mxCell id="PyxdqDs6xn2357YQWsqR-21" value="Once" style="edgeLabel;html=1;align=center;verticalAlign=middle;resizable=0;points=[];" parent="PyxdqDs6xn2357YQWsqR-20" vertex="1" connectable="0">
          <mxGeometry x="0.1051" y="-1" relative="1" as="geometry">
            <mxPoint x="-36" y="-38" as="offset" />
          </mxGeometry>
        </mxCell>
        <mxCell id="PyxdqDs6xn2357YQWsqR-23" value="" style="edgeStyle=orthogonalEdgeStyle;rounded=0;orthogonalLoop=1;jettySize=auto;html=1;exitX=0;exitY=0.5;exitDx=0;exitDy=0;entryX=0.5;entryY=0;entryDx=0;entryDy=0;" parent="1" source="PyxdqDs6xn2357YQWsqR-18" target="PyxdqDs6xn2357YQWsqR-35" edge="1">
          <mxGeometry relative="1" as="geometry" />
        </mxCell>
        <mxCell id="PyxdqDs6xn2357YQWsqR-24" value="Cron" style="edgeLabel;html=1;align=center;verticalAlign=middle;resizable=0;points=[];" parent="PyxdqDs6xn2357YQWsqR-23" vertex="1" connectable="0">
          <mxGeometry x="0.0033" relative="1" as="geometry">
            <mxPoint x="28" y="-37" as="offset" />
          </mxGeometry>
        </mxCell>
        <mxCell id="PyxdqDs6xn2357YQWsqR-18" value="Frequency" style="rhombus;whiteSpace=wrap;html=1;" parent="1" vertex="1">
          <mxGeometry x="1020" y="650" width="80" height="80" as="geometry" />
        </mxCell>
        <mxCell id="PyxdqDs6xn2357YQWsqR-40" style="edgeStyle=orthogonalEdgeStyle;rounded=0;orthogonalLoop=1;jettySize=auto;html=1;entryX=0.5;entryY=0;entryDx=0;entryDy=0;" parent="1" source="PyxdqDs6xn2357YQWsqR-19" target="PyxdqDs6xn2357YQWsqR-39" edge="1">
          <mxGeometry relative="1" as="geometry" />
        </mxCell>
        <mxCell id="PyxdqDs6xn2357YQWsqR-19" value="Status = Finished&lt;div&gt;NextExecution = empty&lt;/div&gt;" style="whiteSpace=wrap;html=1;" parent="1" vertex="1">
          <mxGeometry x="1090" y="790" width="140" height="60" as="geometry" />
        </mxCell>
        <mxCell id="PyxdqDs6xn2357YQWsqR-46" style="edgeStyle=orthogonalEdgeStyle;rounded=0;orthogonalLoop=1;jettySize=auto;html=1;entryX=0.5;entryY=0;entryDx=0;entryDy=0;" parent="1" source="PyxdqDs6xn2357YQWsqR-22" target="PyxdqDs6xn2357YQWsqR-45" edge="1">
          <mxGeometry relative="1" as="geometry">
            <mxPoint x="1010" y="1030" as="targetPoint" />
          </mxGeometry>
        </mxCell>
        <mxCell id="PyxdqDs6xn2357YQWsqR-22" value="Status = Waiting&lt;div&gt;NextExecution = date&lt;/div&gt;" style="whiteSpace=wrap;html=1;" parent="1" vertex="1">
          <mxGeometry x="910" y="920" width="120" height="60" as="geometry" />
        </mxCell>
        <mxCell id="PyxdqDs6xn2357YQWsqR-29" value="" style="edgeStyle=orthogonalEdgeStyle;rounded=0;orthogonalLoop=1;jettySize=auto;html=1;exitX=0;exitY=0.5;exitDx=0;exitDy=0;entryX=0.5;entryY=0;entryDx=0;entryDy=0;" parent="1" source="PyxdqDs6xn2357YQWsqR-25" target="PyxdqDs6xn2357YQWsqR-18" edge="1">
          <mxGeometry relative="1" as="geometry">
            <mxPoint x="1370.0344827586205" y="464" as="targetPoint" />
            <Array as="points">
              <mxPoint x="1060" y="430" />
              <mxPoint x="1060" y="740" />
            </Array>
          </mxGeometry>
        </mxCell>
        <mxCell id="PyxdqDs6xn2357YQWsqR-32" value="None" style="edgeLabel;html=1;align=center;verticalAlign=middle;resizable=0;points=[];" parent="PyxdqDs6xn2357YQWsqR-29" vertex="1" connectable="0">
          <mxGeometry x="-0.3551" relative="1" as="geometry">
            <mxPoint x="90" y="-24" as="offset" />
          </mxGeometry>
        </mxCell>
        <mxCell id="PyxdqDs6xn2357YQWsqR-31" style="edgeStyle=orthogonalEdgeStyle;rounded=0;orthogonalLoop=1;jettySize=auto;html=1;entryX=0.5;entryY=0;entryDx=0;entryDy=0;exitX=1;exitY=0.5;exitDx=0;exitDy=0;" parent="1" source="PyxdqDs6xn2357YQWsqR-25" target="PyxdqDs6xn2357YQWsqR-30" edge="1">
          <mxGeometry relative="1" as="geometry" />
        </mxCell>
        <mxCell id="PyxdqDs6xn2357YQWsqR-33" value="Specified" style="edgeLabel;html=1;align=center;verticalAlign=middle;resizable=0;points=[];" parent="PyxdqDs6xn2357YQWsqR-31" vertex="1" connectable="0">
          <mxGeometry x="-0.4074" y="-1" relative="1" as="geometry">
            <mxPoint x="-36" y="-11" as="offset" />
          </mxGeometry>
        </mxCell>
        <mxCell id="PyxdqDs6xn2357YQWsqR-25" value="RetryPolicy" style="rhombus;whiteSpace=wrap;html=1;" parent="1" vertex="1">
          <mxGeometry x="1167.1399999999999" y="340" width="80" height="80" as="geometry" />
        </mxCell>
        <mxCell id="PyxdqDs6xn2357YQWsqR-50" style="edgeStyle=orthogonalEdgeStyle;rounded=0;orthogonalLoop=1;jettySize=auto;html=1;entryX=0.5;entryY=0;entryDx=0;entryDy=0;" parent="1" source="PyxdqDs6xn2357YQWsqR-30" target="PyxdqDs6xn2357YQWsqR-48" edge="1">
          <mxGeometry relative="1" as="geometry" />
        </mxCell>
        <mxCell id="PyxdqDs6xn2357YQWsqR-30" value="Calculate next execution time based on retry" style="whiteSpace=wrap;html=1;" parent="1" vertex="1">
          <mxGeometry x="1307.1399999999999" y="460" width="120" height="60" as="geometry" />
        </mxCell>
        <mxCell id="PyxdqDs6xn2357YQWsqR-36" style="edgeStyle=orthogonalEdgeStyle;rounded=0;orthogonalLoop=1;jettySize=auto;html=1;entryX=0.5;entryY=0;entryDx=0;entryDy=0;" parent="1" source="PyxdqDs6xn2357YQWsqR-35" target="PyxdqDs6xn2357YQWsqR-22" edge="1">
          <mxGeometry relative="1" as="geometry" />
        </mxCell>
        <mxCell id="PyxdqDs6xn2357YQWsqR-35" value="Calculate frequency based on cron" style="whiteSpace=wrap;html=1;" parent="1" vertex="1">
          <mxGeometry x="910" y="790" width="120" height="60" as="geometry" />
        </mxCell>
        <mxCell id="PyxdqDs6xn2357YQWsqR-39" value="End of schedule" style="ellipse;whiteSpace=wrap;html=1;aspect=fixed;" parent="1" vertex="1">
          <mxGeometry x="1120" y="910" width="80" height="80" as="geometry" />
        </mxCell>
        <mxCell id="PyxdqDs6xn2357YQWsqR-41" value="Schedule is waiting for scheduler" style="ellipse;whiteSpace=wrap;html=1;aspect=fixed;" parent="1" vertex="1">
          <mxGeometry x="270" y="740" width="80" height="80" as="geometry" />
        </mxCell>
        <mxCell id="PyxdqDs6xn2357YQWsqR-43" value="Schedule is waiting for job statuses" style="ellipse;whiteSpace=wrap;html=1;aspect=fixed;" parent="1" vertex="1">
          <mxGeometry x="569" y="480" width="80" height="80" as="geometry" />
        </mxCell>
        <mxCell id="PyxdqDs6xn2357YQWsqR-45" value="Schedule is waiting for scheduler" style="ellipse;whiteSpace=wrap;html=1;aspect=fixed;" parent="1" vertex="1">
          <mxGeometry x="930" y="1050" width="80" height="80" as="geometry" />
        </mxCell>
        <mxCell id="PyxdqDs6xn2357YQWsqR-51" style="edgeStyle=orthogonalEdgeStyle;rounded=0;orthogonalLoop=1;jettySize=auto;html=1;entryX=0.5;entryY=0;entryDx=0;entryDy=0;exitX=0;exitY=0.5;exitDx=0;exitDy=0;" parent="1" source="PyxdqDs6xn2357YQWsqR-48" target="PyxdqDs6xn2357YQWsqR-18" edge="1">
          <mxGeometry relative="1" as="geometry">
            <mxPoint x="1580" y="700" as="targetPoint" />
          </mxGeometry>
        </mxCell>
        <mxCell id="PyxdqDs6xn2357YQWsqR-52" value="No" style="edgeLabel;html=1;align=center;verticalAlign=middle;resizable=0;points=[];" parent="PyxdqDs6xn2357YQWsqR-51" vertex="1" connectable="0">
          <mxGeometry x="-0.3427" relative="1" as="geometry">
            <mxPoint x="90" y="-10" as="offset" />
          </mxGeometry>
        </mxCell>
        <mxCell id="PyxdqDs6xn2357YQWsqR-48" value="Valid date" style="rhombus;whiteSpace=wrap;html=1;fontSize=12;" parent="1" vertex="1">
          <mxGeometry x="1327.14" y="580" width="80" height="80" as="geometry" />
        </mxCell>
        <mxCell id="PyxdqDs6xn2357YQWsqR-58" style="edgeStyle=orthogonalEdgeStyle;rounded=0;orthogonalLoop=1;jettySize=auto;html=1;entryX=0.5;entryY=0;entryDx=0;entryDy=0;" parent="1" source="PyxdqDs6xn2357YQWsqR-53" target="PyxdqDs6xn2357YQWsqR-57" edge="1">
          <mxGeometry relative="1" as="geometry" />
        </mxCell>
        <mxCell id="PyxdqDs6xn2357YQWsqR-53" value="Status = Waiting&lt;div&gt;NextExecution = date&lt;/div&gt;" style="whiteSpace=wrap;html=1;" parent="1" vertex="1">
          <mxGeometry x="1480" y="710" width="120" height="60" as="geometry" />
        </mxCell>
        <mxCell id="PyxdqDs6xn2357YQWsqR-54" style="edgeStyle=orthogonalEdgeStyle;rounded=0;orthogonalLoop=1;jettySize=auto;html=1;entryX=0.5;entryY=0;entryDx=0;entryDy=0;exitX=1;exitY=0.5;exitDx=0;exitDy=0;" parent="1" source="PyxdqDs6xn2357YQWsqR-48" target="PyxdqDs6xn2357YQWsqR-53" edge="1">
          <mxGeometry relative="1" as="geometry" />
        </mxCell>
        <mxCell id="PyxdqDs6xn2357YQWsqR-55" value="Yes" style="edgeLabel;html=1;align=center;verticalAlign=middle;resizable=0;points=[];" parent="PyxdqDs6xn2357YQWsqR-54" vertex="1" connectable="0">
          <mxGeometry x="-0.3695" relative="1" as="geometry">
            <mxPoint x="-57" y="-10" as="offset" />
          </mxGeometry>
        </mxCell>
        <mxCell id="PyxdqDs6xn2357YQWsqR-57" value="Schedule is waiting for scheduler" style="ellipse;whiteSpace=wrap;html=1;aspect=fixed;" parent="1" vertex="1">
          <mxGeometry x="1500" y="840" width="80" height="80" as="geometry" />
        </mxCell>
        <mxCell id="PyxdqDs6xn2357YQWsqR-63" style="edgeStyle=orthogonalEdgeStyle;rounded=0;orthogonalLoop=1;jettySize=auto;html=1;entryX=0.5;entryY=0;entryDx=0;entryDy=0;exitX=0;exitY=0.5;exitDx=0;exitDy=0;" parent="1" source="PyxdqDs6xn2357YQWsqR-59" target="PyxdqDs6xn2357YQWsqR-62" edge="1">
          <mxGeometry relative="1" as="geometry" />
        </mxCell>
        <mxCell id="PyxdqDs6xn2357YQWsqR-64" value="Specified" style="edgeLabel;html=1;align=center;verticalAlign=middle;resizable=0;points=[];" parent="PyxdqDs6xn2357YQWsqR-63" vertex="1" connectable="0">
          <mxGeometry x="-0.199" relative="1" as="geometry">
            <mxPoint x="35" y="-10" as="offset" />
          </mxGeometry>
        </mxCell>
        <mxCell id="PyxdqDs6xn2357YQWsqR-59" value="ScheduleStart" style="rhombus;whiteSpace=wrap;html=1;" parent="1" vertex="1">
          <mxGeometry x="255" y="470" width="110" height="80" as="geometry" />
        </mxCell>
        <mxCell id="PyxdqDs6xn2357YQWsqR-61" style="edgeStyle=orthogonalEdgeStyle;rounded=0;orthogonalLoop=1;jettySize=auto;html=1;entryX=0.5;entryY=0;entryDx=0;entryDy=0;" parent="1" source="PyxdqDs6xn2357YQWsqR-60" target="PyxdqDs6xn2357YQWsqR-59" edge="1">
          <mxGeometry relative="1" as="geometry" />
        </mxCell>
        <mxCell id="PyxdqDs6xn2357YQWsqR-60" value="Calculate first execution" style="whiteSpace=wrap;html=1;" parent="1" vertex="1">
          <mxGeometry x="249.9999999999999" y="340" width="120" height="60" as="geometry" />
        </mxCell>
        <mxCell id="PyxdqDs6xn2357YQWsqR-67" style="edgeStyle=orthogonalEdgeStyle;rounded=0;orthogonalLoop=1;jettySize=auto;html=1;entryX=0.5;entryY=0;entryDx=0;entryDy=0;exitX=0.5;exitY=1;exitDx=0;exitDy=0;" parent="1" source="PyxdqDs6xn2357YQWsqR-62" target="PyxdqDs6xn2357YQWsqR-41" edge="1">
          <mxGeometry relative="1" as="geometry" />
        </mxCell>
        <mxCell id="PyxdqDs6xn2357YQWsqR-62" value="Status = Waiting&lt;div&gt;NextExecution = schedule start date&lt;/div&gt;" style="whiteSpace=wrap;html=1;" parent="1" vertex="1">
          <mxGeometry x="100" y="580" width="150" height="60" as="geometry" />
        </mxCell>
        <mxCell id="PyxdqDs6xn2357YQWsqR-65" style="edgeStyle=orthogonalEdgeStyle;rounded=0;orthogonalLoop=1;jettySize=auto;html=1;entryX=0.5;entryY=0;entryDx=0;entryDy=0;" parent="1" source="PyxdqDs6xn2357YQWsqR-59" target="PyxdqDs6xn2357YQWsqR-10" edge="1">
          <mxGeometry relative="1" as="geometry">
            <mxPoint x="480" y="580" as="targetPoint" />
          </mxGeometry>
        </mxCell>
        <mxCell id="PyxdqDs6xn2357YQWsqR-66" value="Unspecified" style="edgeLabel;html=1;align=center;verticalAlign=middle;resizable=0;points=[];" parent="PyxdqDs6xn2357YQWsqR-65" vertex="1" connectable="0">
          <mxGeometry x="-0.123" y="-2" relative="1" as="geometry">
            <mxPoint x="-35" y="-12" as="offset" />
          </mxGeometry>
        </mxCell>
      </root>
    </mxGraphModel>
  </diagram>
</mxfile>
